<svg xmlns="http://www.w3.org/2000/svg" width="24" height="23.912" fill="none" overflow="visible"><path d="M 12 0 C 5.373 0 0 5.373 0 12 C 0 17.628 3.875 22.35 9.101 23.647 L 9.101 15.667 L 6.627 15.667 L 6.627 12 L 9.1 12 L 9.1 10.42 C 9.1 6.336 10.949 4.442 14.959 4.442 C 15.719 4.442 17.031 4.592 17.567 4.74 L 17.567 8.064 C 17.106 8.029 16.643 8.014 16.181 8.02 C 14.214 8.02 13.453 8.765 13.453 10.703 L 13.453 12 L 17.373 12 L 16.7 15.667 L 13.453 15.667 L 13.453 23.912 C 19.396 23.195 24 18.135 24 12 C 24 5.373 18.627 0 12 0 Z" fill="rgb(255,255,255)"></path></svg>