<svg xmlns="http://www.w3.org/2000/svg" width="24" height="24" fill="none" overflow="visible"><g><path d="M 0 0 L 24 0 L 24 24 L 0 24 Z" fill="transparent"></path><path d="M 12 2.16 C 15.206 2.16 15.586 2.175 16.847 2.231 C 18.019 2.283 18.652 2.48 19.073 2.644 C 19.594 2.835 20.065 3.141 20.452 3.539 C 20.873 3.961 21.132 4.359 21.347 4.917 C 21.511 5.339 21.707 5.977 21.759 7.144 C 21.816 8.409 21.829 8.789 21.829 11.991 C 21.829 15.197 21.816 15.577 21.759 16.837 C 21.708 18.009 21.511 18.642 21.347 19.064 C 21.155 19.584 20.849 20.055 20.452 20.442 C 20.065 20.84 19.594 21.146 19.073 21.337 C 18.652 21.502 18.014 21.698 16.847 21.75 C 15.581 21.806 15.202 21.82 12 21.82 C 8.794 21.82 8.414 21.806 7.153 21.75 C 5.981 21.698 5.348 21.502 4.927 21.337 C 4.406 21.146 3.935 20.84 3.548 20.442 C 3.15 20.056 2.844 19.585 2.653 19.064 C 2.489 18.642 2.293 18.004 2.241 16.837 C 2.184 15.572 2.171 15.192 2.171 11.991 C 2.171 8.784 2.184 8.405 2.241 7.144 C 2.292 5.972 2.489 5.339 2.653 4.917 C 2.869 4.359 3.131 3.957 3.548 3.539 C 3.97 3.117 4.368 2.859 4.927 2.644 C 5.348 2.48 5.986 2.283 7.153 2.231 C 8.414 2.175 8.793 2.161 12 2.161 Z M 12 0 C 8.742 0 8.334 0.014 7.055 0.07 C 5.78 0.127 4.903 0.333 4.144 0.628 C 3.342 0.929 2.615 1.403 2.016 2.016 C 1.404 2.614 0.931 3.339 0.628 4.139 C 0.333 4.903 0.127 5.775 0.07 7.05 C 0.014 8.334 0 8.742 0 12 C 0 15.258 0.014 15.666 0.07 16.945 C 0.127 18.22 0.333 19.097 0.628 19.856 C 0.938 20.648 1.345 21.319 2.016 21.984 C 2.614 22.594 3.339 23.066 4.139 23.367 C 4.903 23.663 5.775 23.869 7.05 23.925 C 8.33 23.981 8.738 23.995 11.995 23.995 C 15.253 23.995 15.661 23.981 16.941 23.925 C 18.216 23.869 19.092 23.663 19.851 23.367 C 20.651 23.066 21.376 22.594 21.975 21.984 C 22.585 21.386 23.057 20.661 23.358 19.861 C 23.653 19.097 23.859 18.225 23.916 16.95 C 23.972 15.67 23.986 15.262 23.986 12.005 C 23.986 8.747 23.972 8.339 23.916 7.059 C 23.859 5.784 23.653 4.908 23.358 4.149 C 23.069 3.343 22.599 2.613 21.984 2.016 C 21.386 1.406 20.661 0.934 19.861 0.633 C 19.097 0.338 18.225 0.13 16.95 0.075 C 15.666 0.015 15.258 0 12 0 Z" fill="rgb(255,255,255)"></path><path d="M 12 5.836 C 8.596 5.837 5.837 8.596 5.836 12 C 5.837 15.404 8.596 18.163 12 18.164 C 15.404 18.163 18.163 15.404 18.164 12 C 18.163 8.596 15.404 5.837 12 5.836 Z M 12 15.998 C 9.791 15.998 8.001 14.207 8.001 11.999 C 8.002 9.79 9.792 8 12.001 8 C 14.21 8 16 9.791 15.999 12 C 15.999 14.208 14.209 15.998 12 15.998 Z M 19.847 5.592 C 19.861 6.115 19.589 6.605 19.138 6.871 C 18.687 7.136 18.128 7.136 17.677 6.871 C 17.226 6.605 16.954 6.115 16.968 5.592 C 16.989 4.812 17.627 4.19 18.408 4.19 C 19.188 4.19 19.826 4.812 19.847 5.592 Z" fill="rgb(255,255,255)"></path></g></svg>