<svg width="148" height="41" fill="none" xmlns="http://www.w3.org/2000/svg"><g opacity=".96" fill="#fff"><path d="M46.692 27.055h9.294v-2.792h-5.99V13.747h-3.304v13.308Zm14.801-1.862c-1.325 0-2.015-1.154-2.015-2.884 0-1.731.69-2.904 2.015-2.904 1.326 0 2.035 1.173 2.035 2.904 0 1.73-.71 2.884-2.035 2.884Zm.02 2.16c3.079 0 5.094-2.178 5.094-5.044 0-2.867-2.015-5.044-5.095-5.044-3.06 0-5.114 2.177-5.114 5.044 0 2.866 2.053 5.043 5.114 5.043Zm10.425 2.997c1.418 0 2.669-.317 3.509-1.062.765-.688 1.269-1.73 1.269-3.163v-8.6h-2.912v1.025h-.037c-.56-.8-1.419-1.303-2.688-1.303-2.37 0-4.012 1.973-4.012 4.764 0 2.922 1.997 4.523 4.143 4.523 1.157 0 1.885-.465 2.445-1.098h.075v.95c0 1.153-.542 1.823-1.83 1.823-1.007 0-1.511-.428-1.68-.93h-2.948c.298 1.99 2.034 3.07 4.666 3.07Zm-.019-6.068c-1.138 0-1.885-.93-1.885-2.364 0-1.451.747-2.382 1.885-2.382 1.27 0 1.941 1.08 1.941 2.364 0 1.34-.616 2.382-1.94 2.382Zm10.784.911c-1.326 0-2.016-1.154-2.016-2.884 0-1.731.69-2.904 2.016-2.904 1.325 0 2.034 1.173 2.034 2.904 0 1.73-.71 2.884-2.034 2.884Zm.018 2.16c3.08 0 5.095-2.178 5.095-5.044 0-2.867-2.015-5.044-5.095-5.044-3.06 0-5.114 2.177-5.114 5.044 0 2.866 2.053 5.043 5.114 5.043Zm5.983-.298h3.043v-9.53h-3.043v9.53Zm0-10.851h3.043v-2.457h-3.043v2.457ZM93.066 30.2h3.043v-4.13h.037c.597.8 1.474 1.284 2.706 1.284 2.501 0 4.162-1.973 4.162-5.062 0-2.867-1.549-5.044-4.087-5.044-1.307 0-2.24.577-2.893 1.433h-.056v-1.154h-2.912V30.2Zm5.002-5.192c-1.306 0-2.053-1.061-2.053-2.606s.672-2.717 1.997-2.717c1.307 0 1.922 1.08 1.922 2.717 0 1.62-.709 2.606-1.866 2.606Zm9.9 2.345c2.5 0 4.348-1.08 4.348-3.164 0-2.438-1.978-2.866-3.658-3.145-1.213-.224-2.296-.317-2.296-.987 0-.595.579-.875 1.325-.875.84 0 1.419.261 1.531 1.117h2.8c-.15-1.88-1.606-3.052-4.312-3.052-2.259 0-4.124 1.042-4.124 3.052 0 2.233 1.773 2.68 3.433 2.96 1.27.223 2.426.316 2.426 1.172 0 .614-.578.95-1.493.95-1.007 0-1.642-.466-1.753-1.415h-2.875c.093 2.103 1.848 3.387 4.648 3.387Zm8.48-.019c1.326 0 2.165-.522 2.856-1.452h.056v1.172h2.911v-9.529h-3.041v5.323c0 1.136-.635 1.917-1.68 1.917-.971 0-1.437-.577-1.437-1.62v-5.62h-3.024v6.254c0 2.122 1.158 3.555 3.359 3.555Zm7.147-.279h3.042v-5.341c0-1.136.56-1.936 1.513-1.936.914 0 1.343.596 1.343 1.62v5.657h3.043v-5.341c0-1.136.541-1.936 1.511-1.936.915 0 1.343.596 1.343 1.62v5.657h3.043v-6.198c0-2.14-1.083-3.61-3.248-3.61-1.232 0-2.257.52-3.005 1.675h-.036c-.486-1.024-1.438-1.675-2.688-1.675-1.382 0-2.296.651-2.894 1.638h-.056v-1.36h-2.911v9.53ZM28.13 6.135l-3.058-.817-2.577 9.592-2.327-8.66-3.059.817 2.514 9.357-6.262-6.245-2.24 2.233 6.87 6.85-8.554-2.286-.82 3.05 9.346 2.497a6.326 6.326 0 0 1-.163-1.432c0-3.488 2.835-6.315 6.333-6.315s6.333 2.827 6.333 6.315c0 .49-.056.966-.162 1.424l8.495 2.27.82-3.05-9.384-2.508 8.554-2.286-.82-3.05-9.383 2.507 6.263-6.244-2.24-2.233-6.773 6.754 2.295-8.54Z"/><path d="M30.295 22.551a6.297 6.297 0 0 1-1.575 2.895l6.154 6.136 2.239-2.233-6.818-6.798Zm-1.637 2.959a6.333 6.333 0 0 1-2.83 1.668l2.24 8.334 3.058-.817-2.468-9.185Zm-2.944 1.698a6.364 6.364 0 0 1-3.27-.028l-2.241 8.34 3.058.818 2.453-9.13Zm-3.378-.059a6.335 6.335 0 0 1-2.78-1.693l-6.17 6.152 2.24 2.232 6.71-6.691Zm-2.833-1.747a6.296 6.296 0 0 1-1.536-2.859L9.445 24.82l.82 3.05 9.238-2.468Z"/></g></svg>